<svg width="100" height="100" viewBox="0 0 100 100" fill="none" xmlns="http://www.w3.org/2000/svg">
<path d="M14 42V73C14 78.5228 18.4772 83 24 83H75C80.5229 83 85 78.5228 85 73V42" stroke="white" stroke-width="5"/>
<path d="M50.7678 15.2322C49.7915 14.2559 48.2085 14.2559 47.2322 15.2322L31.3223 31.1421C30.346 32.1184 30.346 33.7014 31.3223 34.6777C32.2986 35.654 33.8816 35.654 34.8579 34.6777L49 20.5355L63.1421 34.6777C64.1184 35.654 65.7014 35.654 66.6777 34.6777C67.654 33.7014 67.654 32.1184 66.6777 31.1421L50.7678 15.2322ZM51.5 66L51.5 17L46.5 17L46.5 66L51.5 66Z" fill="white"/>
</svg>
